<svg version="1.1" viewBox="0.0 0.0 960.0 720.0" fill="none" stroke="none" stroke-linecap="square" stroke-miterlimit="10" xmlns:xlink="http://www.w3.org/1999/xlink" xmlns="http://www.w3.org/2000/svg"><clipPath id="p.0"><path d="m0 0l960.0 0l0 720.0l-960.0 0l0 -720.0z" clip-rule="nonzero"/></clipPath><g clip-path="url(#p.0)"><path fill="#000000" fill-opacity="0.0" d="m0 0l960.0 0l0 720.0l-960.0 0z" fill-rule="evenodd"/><path fill="#6aa84f" d="m667.021 146.22572l-467.5525 0c51.644424 0 93.5105 95.71001 93.5105 213.77428c0 118.06427 -41.866074 213.77429 -93.5105 213.77429l467.5525 0l0 0c51.64441 0 93.5105 -95.71002 93.5105 -213.77429c0 -118.06427 -41.86609 -213.77428 -93.5105 -213.77428z" fill-rule="evenodd"/><path stroke="#6aa84f" stroke-width="1.0" stroke-linejoin="round" stroke-linecap="round" d="m667.021 146.22572l-467.5525 0c51.644424 0 93.5105 95.71001 93.5105 213.77428c0 118.06427 -41.866074 213.77429 -93.5105 213.77429l467.5525 0l0 0c51.64441 0 93.5105 -95.71002 93.5105 -213.77429c0 -118.06427 -41.86609 -213.77428 -93.5105 -213.77428z" fill-rule="evenodd"/><path fill="#ffffff" d="m442.73376 409.3281q-10.125 0 -18.9375 -3.65625q-8.796875 -3.671875 -15.46875 -10.203125q-6.65625 -6.53125 -10.328125 -15.265625q-3.65625 -8.734375 -3.65625 -18.875q0 -10.0 3.65625 -18.65625q3.671875 -8.671875 10.265625 -15.140625q6.609375 -6.46875 15.40625 -10.0625q8.796875 -3.59375 18.9375 -3.59375q7.0625 0 13.796875 2.0q6.734375 2.0 12.1875 5.59375q5.46875 3.59375 8.9375 8.265625l-9.328125 9.734375q-4.0 -3.859375 -8.203125 -6.390625q-4.203125 -2.546875 -8.609375 -3.875q-4.390625 -1.328125 -8.78125 -1.328125q-7.203125 0 -13.28125 2.53125q-6.0625 2.53125 -10.671875 7.0625q-4.59375 4.53125 -7.125 10.609375q-2.53125 6.0625 -2.53125 13.25q0 6.9375 2.671875 13.140625q2.671875 6.203125 7.390625 10.875q4.734375 4.65625 10.9375 7.328125q6.203125 2.65625 13.140625 2.65625q5.1875 0 9.859375 -1.53125q4.671875 -1.53125 8.265625 -4.328125q3.609375 -2.796875 5.609375 -6.46875q2.0 -3.671875 2.0 -7.796875l0 -2.671875l2.0 1.875l-28.546875 0l0 -14.265625l41.34375 0q0.265625 1.46875 0.390625 2.875q0.140625 1.390625 0.203125 2.65625q0.0625 1.265625 0.0625 2.46875q0 9.1875 -3.203125 16.734375q-3.1875 7.53125 -8.859375 13.0q-5.671875 5.453125 -13.203125 8.453125q-7.53125 3.0 -16.328125 3.0zm88.39502 0q-10.265625 0 -18.328125 -4.734375q-8.0625 -4.734375 -12.734375 -12.921875q-4.671875 -8.203125 -4.671875 -18.734375q0 -10.53125 4.671875 -18.734375q4.671875 -8.203125 12.734375 -12.9375q8.0625 -4.734375 18.328125 -4.734375q10.140625 0 18.203125 4.734375q8.0625 4.734375 12.71875 12.9375q4.671875 8.203125 4.671875 18.734375q0 10.53125 -4.671875 18.734375q-4.65625 8.1875 -12.71875 12.921875q-8.0625 4.734375 -18.203125 4.734375zm0 -12.53125q6.265625 0 11.203125 -3.125q4.9375 -3.140625 7.734375 -8.53125q2.796875 -5.40625 2.671875 -12.203125q0.125 -6.9375 -2.671875 -12.328125q-2.796875 -5.40625 -7.734375 -8.46875q-4.9375 -3.078125 -11.203125 -3.078125q-6.265625 0 -11.265625 3.140625q-5.0 3.125 -7.796875 8.53125q-2.796875 5.40625 -2.671875 12.203125q-0.125 6.796875 2.671875 12.203125q2.796875 5.390625 7.796875 8.53125q5.0 3.125 11.265625 3.125z" fill-rule="nonzero"/></g></svg>