<?xml version="1.0" encoding="UTF-8"?>
<svg xmlns="http://www.w3.org/2000/svg" xmlns:xlink="http://www.w3.org/1999/xlink" width="104px" height="140px" viewBox="0 0 104 140" version="1.1">
<g id="surface1">
<path style="fill-rule:evenodd;fill:rgb(41.568627%,65.882353%,30.980392%);fill-opacity:1;stroke-width:1;stroke-linecap:round;stroke-linejoin:round;stroke:rgb(41.568627%,65.882353%,30.980392%);stroke-opacity:1;stroke-miterlimit:10;" d="M 667.03125 146.229911 L 199.471154 146.229911 C 251.105769 146.229911 292.96875 241.935268 292.96875 360 C 292.96875 478.064732 251.105769 573.770089 199.471154 573.770089 L 667.03125 573.770089 C 718.665865 573.770089 760.528846 478.064732 760.528846 360 C 760.528846 241.935268 718.665865 146.229911 667.03125 146.229911 Z M 667.03125 146.229911 " transform="matrix(0.108333,0,0,0.194444,0,0)"/>
<path style=" stroke:none;fill-rule:nonzero;fill:rgb(100%,100%,100%);fill-opacity:1;" d="M 47.960938 79.589844 C 47.230469 79.589844 46.546875 79.355469 45.910156 78.878906 C 45.277344 78.40625 44.71875 77.742188 44.234375 76.898438 C 43.753906 76.050781 43.382812 75.0625 43.117188 73.929688 C 42.851562 72.796875 42.71875 71.574219 42.71875 70.257812 C 42.71875 68.960938 42.851562 67.753906 43.117188 66.628906 C 43.382812 65.507812 43.753906 64.523438 44.230469 63.6875 C 44.707031 62.847656 45.261719 62.195312 45.898438 61.730469 C 46.53125 61.265625 47.21875 61.03125 47.949219 61.03125 C 48.460938 61.03125 48.957031 61.160156 49.445312 61.421875 C 49.929688 61.679688 50.371094 62.042969 50.765625 62.507812 C 51.160156 62.972656 51.480469 63.507812 51.734375 64.113281 L 50.722656 66.007812 C 50.433594 65.507812 50.136719 65.09375 49.832031 64.765625 C 49.53125 64.433594 49.21875 64.183594 48.902344 64.011719 C 48.582031 63.839844 48.265625 63.753906 47.949219 63.753906 C 47.429688 63.753906 46.949219 63.917969 46.511719 64.246094 C 46.074219 64.574219 45.6875 65.03125 45.355469 65.617188 C 45.023438 66.207031 44.765625 66.894531 44.582031 67.683594 C 44.398438 68.46875 44.308594 69.328125 44.308594 70.257812 C 44.308594 71.15625 44.40625 72.007812 44.597656 72.8125 C 44.789062 73.617188 45.058594 74.324219 45.398438 74.929688 C 45.742188 75.53125 46.136719 76.007812 46.582031 76.351562 C 47.03125 76.695312 47.503906 76.871094 48.007812 76.871094 C 48.382812 76.871094 48.738281 76.769531 49.074219 76.570312 C 49.414062 76.375 49.710938 76.09375 49.96875 75.730469 C 50.230469 75.367188 50.433594 74.949219 50.578125 74.472656 C 50.722656 73.996094 50.792969 73.492188 50.792969 72.957031 L 50.792969 72.4375 L 51.011719 72.800781 L 47.917969 72.800781 L 47.917969 70.027344 L 52.398438 70.027344 C 52.417969 70.21875 52.429688 70.402344 52.441406 70.585938 C 52.449219 70.765625 52.457031 70.9375 52.460938 71.101562 C 52.464844 71.265625 52.46875 71.425781 52.46875 71.582031 C 52.46875 72.773438 52.351562 73.859375 52.121094 74.835938 C 51.890625 75.8125 51.570312 76.65625 51.160156 77.363281 C 50.753906 78.070312 50.277344 78.621094 49.730469 79.007812 C 49.1875 79.398438 48.597656 79.589844 47.960938 79.589844 Z M 57.539062 79.589844 C 56.796875 79.589844 56.136719 79.285156 55.554688 78.671875 C 54.972656 78.058594 54.511719 77.21875 54.175781 76.160156 C 53.835938 75.09375 53.667969 73.878906 53.667969 72.515625 C 53.667969 71.152344 53.835938 69.9375 54.175781 68.871094 C 54.511719 67.808594 54.972656 66.972656 55.554688 66.355469 C 56.136719 65.742188 56.796875 65.4375 57.539062 65.4375 C 58.269531 65.4375 58.929688 65.742188 59.511719 66.355469 C 60.09375 66.972656 60.550781 67.808594 60.890625 68.871094 C 61.226562 69.9375 61.394531 71.152344 61.394531 72.515625 C 61.394531 73.878906 61.226562 75.09375 60.890625 76.160156 C 60.550781 77.21875 60.09375 78.058594 59.511719 78.671875 C 58.929688 79.285156 58.269531 79.589844 57.539062 79.589844 Z M 57.539062 77.15625 C 57.992188 77.15625 58.394531 76.953125 58.753906 76.546875 C 59.109375 76.140625 59.386719 75.585938 59.589844 74.886719 C 59.792969 74.1875 59.890625 73.398438 59.878906 72.515625 C 59.890625 71.617188 59.792969 70.816406 59.589844 70.117188 C 59.386719 69.417969 59.109375 68.867188 58.753906 68.472656 C 58.394531 68.074219 57.992188 67.875 57.539062 67.875 C 57.085938 67.875 56.679688 68.078125 56.320312 68.484375 C 55.957031 68.890625 55.675781 69.441406 55.472656 70.144531 C 55.273438 70.84375 55.175781 71.632812 55.183594 72.515625 C 55.175781 73.398438 55.273438 74.1875 55.472656 74.886719 C 55.675781 75.585938 55.957031 76.140625 56.320312 76.546875 C 56.679688 76.953125 57.085938 77.15625 57.539062 77.15625 Z M 57.539062 77.15625 "/>
</g>
</svg>
